HIERARCHY
ROOT Hips
{
 OFFSET 0.000000 0.000000 0.000000
 CHANNELS 6 Xposition Yposition Zposition Yrotation Xrotation Zrotation
 JOINT Chest
 {
  OFFSET 0.000000 9.581000 -0.001100
  CHANNELS 3 Yrotation Xrotation Zrotation
  JOINT Chest2
  {
   OFFSET 0.000000 9.561100 0.002200
   CHANNELS 3 Yrotation Xrotation Zrotation
   JOINT Chest3
   {
    OFFSET 0.000000 9.521100 0.000000
    CHANNELS 3 Yrotation Xrotation Zrotation
    JOINT Chest4
    {
     OFFSET 0.000000 9.511400 0.000000
     CHANNELS 3 Yrotation Xrotation Zrotation
     JOINT Neck
     {
      OFFSET 0.000000 14.375100 0.000000
      CHANNELS 3 Yrotation Xrotation Zrotation
      JOINT Head
      {
       OFFSET 0.000000 8.901200 0.004600
       CHANNELS 3 Yrotation Xrotation Zrotation
       End Site
       {
        OFFSET 0.000000 16.962200 0.002400
       }
      }
     }
     JOINT RightCollar
     {
      OFFSET -2.920100 9.518800 0.000000
      CHANNELS 3 Yrotation Xrotation Zrotation
      JOINT RightShoulder
      {
       OFFSET -13.664500 0.000000 0.000000
       CHANNELS 3 Yrotation Xrotation Zrotation
       JOINT RightElbow
       {
        OFFSET 0.000000 -29.999200 0.000000
        CHANNELS 3 Yrotation Xrotation Zrotation
        JOINT RightWrist
        {
         OFFSET 0.000000 -24.253600 0.000000
         CHANNELS 3 Yrotation Xrotation Zrotation
         End Site
         {
          OFFSET 0.000000 -17.918900 0.000000
         }
        }
       }
      }
     }
     JOINT LeftCollar
     {
      OFFSET 2.920100 9.518800 0.000000
      CHANNELS 3 Yrotation Xrotation Zrotation
      JOINT LeftShoulder
      {
       OFFSET 13.664500 0.000000 0.000000
       CHANNELS 3 Yrotation Xrotation Zrotation
       JOINT LeftElbow
       {
        OFFSET 0.000000 -29.999200 0.000000
        CHANNELS 3 Yrotation Xrotation Zrotation
        JOINT LeftWrist
        {
         OFFSET 0.000000 -24.253600 0.000000
         CHANNELS 3 Yrotation Xrotation Zrotation
         End Site
         {
          OFFSET 0.000000 -17.918900 0.000000
         }
        }
       }
      }
     }
    }
   }
  }
 }
 JOINT RightHip
 {
  OFFSET -7.797300 0.005300 0.000500
  CHANNELS 3 Yrotation Xrotation Zrotation
  JOINT RightKnee
  {
   OFFSET 0.000000 -40.663400 -0.000500
   CHANNELS 3 Yrotation Xrotation Zrotation
   JOINT RightAnkle
   {
    OFFSET 0.000000 -39.523700 -0.000900
    CHANNELS 3 Yrotation Xrotation Zrotation
    JOINT RightToe
    {
     OFFSET 0.000000 -6.418000 14.485300
     CHANNELS 3 Yrotation Xrotation Zrotation
     End Site
     {
      OFFSET 0.000000 -1.465200 6.326400
     }
    }
   }
  }
 }
 JOINT LeftHip
 {
  OFFSET 7.797300 0.005300 0.000500
  CHANNELS 3 Yrotation Xrotation Zrotation
  JOINT LeftKnee
  {
   OFFSET 0.000000 -40.663400 -0.000500
   CHANNELS 3 Yrotation Xrotation Zrotation
   JOINT LeftAnkle
   {
    OFFSET 0.000000 -39.523700 -0.000900
    CHANNELS 3 Yrotation Xrotation Zrotation
    JOINT LeftToe
    {
     OFFSET 0.000000 -6.418000 14.485300
     CHANNELS 3 Yrotation Xrotation Zrotation
     End Site
     {
      OFFSET 0.000000 -1.465200 6.326400
     }
    }
   }
  }
 }
}
MOTION
Frames: 11
Frame Time: 0.008333
-15.106240 126.895716 15.590255 174.941901 -49.013517 -4.872514 3.016246 26.231879 5.701368 0.321118 4.494293 0.851390 0.535282 7.125182 1.366463 2.245210 21.468429 4.497175 11.133465 18.022897 -2.226443 13.037065 -6.013029 -5.132078 3.933463 2.243304 4.134454 -6.136200 -23.625341 -16.450157 -91.639071 -52.590172 141.208947 -14.466505 1.355279 -11.688007 -10.296810 -0.558973 0.072915 0.778311 -6.372659 6.263779 46.840446 -71.735791 -77.929726 -6.538051 -11.410701 9.034908 -16.911922 -9.171417 4.086249 8.747849 75.871598 24.072800 23.554241 -18.873963 15.490147 0.001059 -0.007367 0.000469 9.527645 -16.737822 -4.513151 7.290828 67.307433 -5.726550 7.101064 -4.557798 15.648418 -0.000450 0.006442 -0.000200
-15.104664 126.896636 15.589851 174.933956 -49.017136 -4.863923 3.011767 26.237373 5.696099 0.307931 4.496628 0.851122 0.532936 7.125140 1.363033 2.243494 21.466367 4.488783 11.120495 18.040005 -2.224864 12.941112 -5.966381 -5.092947 3.904575 2.253920 4.123955 -6.109936 -23.581978 -16.479294 -91.674841 -52.563416 141.277218 -14.404061 1.498436 -11.570336 -10.289793 -0.539835 0.070437 0.735579 -6.380125 6.238537 46.792816 -71.726234 -77.858272 -6.539185 -11.373341 9.036528 -16.935992 -9.153804 4.079753 8.801793 75.856256 24.118245 23.551675 -18.876873 15.471981 0.002068 -0.003283 0.000916 9.536133 -16.724896 -4.492780 7.238450 67.298304 -5.784196 7.100054 -4.547949 15.650629 0.000137 0.007958 0.000061
-15.103895 126.895875 15.590832 174.905483 -49.009405 -4.835264 3.017558 26.232024 5.684642 0.307426 4.496280 0.850388 0.531973 7.125133 1.361707 2.226945 21.469729 4.480011 11.107910 18.054161 -2.222527 12.838727 -5.913549 -5.052706 3.903344 2.256281 4.119850 -6.095740 -23.564841 -16.489868 -91.638382 -52.582823 141.268552 -14.340052 1.601715 -11.447819 -10.276323 -0.526890 0.069894 0.728309 -6.393311 6.230697 46.742795 -71.706071 -77.846251 -6.528861 -11.313474 9.041452 -16.926898 -9.161730 4.071222 8.816767 75.851123 24.144244 23.558348 -18.873696 15.458632 0.005605 -0.001047 0.002483 9.561293 -16.722024 -4.481061 7.225710 67.287966 -5.804675 7.081233 -4.540246 15.655493 -0.000208 0.008394 -0.000092
-15.102711 126.895823 15.591329 174.889766 -49.007327 -4.818309 3.008410 26.234955 5.673335 0.314509 4.494346 0.848643 0.531024 7.125273 1.360474 2.211642 21.473192 4.472477 10.998374 18.120723 -2.212294 12.821456 -5.900777 -5.062482 3.902397 2.258062 4.114259 -6.083339 -23.546205 -16.498332 -91.607660 -52.605908 141.264649 -14.282927 1.689826 -11.327422 -10.257979 -0.522837 0.068409 0.727205 -6.400172 6.228361 46.652861 -71.667011 -77.858369 -6.566491 -11.307383 9.127033 -16.931423 -9.159223 4.064317 8.834332 75.842323 24.165003 23.548554 -18.882403 15.453386 0.004566 -0.003408 0.002023 9.575575 -16.712383 -4.475683 7.232563 67.275986 -5.807742 7.087102 -4.559168 15.658064 -0.001455 0.003297 -0.000645
-15.101864 126.896169 15.591462 174.872101 -49.009600 -4.797866 2.987426 26.237113 5.660485 0.325641 4.496741 0.843787 0.511271 7.128222 1.360979 2.198578 21.479409 4.457342 10.935136 18.169737 -2.215917 12.765058 -5.870460 -5.057366 3.931449 2.256189 4.101307 -6.098221 -23.452238 -16.542669 -91.645342 -52.620959 141.373103 -14.231219 1.720861 -11.218351 -10.222676 -0.521561 0.059382 0.697692 -6.403566 6.222953 46.615054 -71.650124 -77.865912 -6.565064 -11.250910 9.137983 -16.931608 -9.153252 4.055123 8.862134 75.832422 24.194943 23.532418 -18.891596 15.447822 0.001741 -0.004176 0.000771 9.592895 -16.698575 -4.470487 7.286231 67.267593 -5.769615 7.059541 -4.570103 15.668925 -0.005013 -0.000931 -0.002221
-15.101266 126.896292 15.591783 174.860348 -49.010753 -4.780928 2.986640 26.237744 5.650611 0.312198 4.496479 0.846127 0.511911 7.133275 1.358750 2.196489 21.481327 4.451834 10.907071 18.188108 -2.220169 12.643367 -5.817136 -5.029974 3.938279 2.255462 4.091442 -6.100349 -23.399641 -16.559861 -91.682050 -52.630037 141.440115 -14.175173 1.794744 -11.109835 -10.214078 -0.489168 0.053696 0.628722 -6.431744 6.217212 46.644663 -71.653111 -77.851416 -6.549502 -11.194023 9.084633 -16.944899 -9.150512 4.039700 8.909517 75.826676 24.235721 23.518551 -18.903376 15.446027 -0.006540 -0.011374 -0.002897 9.617078 -16.684496 -4.469778 7.270789 67.258672 -5.780057 7.044518 -4.581624 15.674492 -0.004547 -0.002460 -0.002014
-15.100331 126.896492 15.592138 174.852943 -49.012867 -4.769868 2.973724 26.243212 5.641761 0.311150 4.497713 0.845201 0.513430 7.134620 1.357543 2.202274 21.479387 4.446704 10.801032 18.233913 -2.227618 12.579532 -5.796062 -5.034784 3.919058 2.256706 4.087324 -6.082865 -23.339360 -16.577083 -91.734763 -52.642214 141.518727 -14.111203 1.864262 -11.000525 -10.211111 -0.478635 0.052744 0.586508 -6.441123 6.216846 46.656756 -71.647750 -77.854699 -6.546916 -11.161444 9.035612 -16.947014 -9.149355 4.027833 8.921860 75.823358 24.249284 23.551019 -18.891727 15.453712 -0.002484 -0.007212 -0.001101 9.654404 -16.660503 -4.463407 7.265850 67.244213 -5.778613 7.006004 -4.598219 15.691793 -0.004924 0.001293 -0.002182
-15.099671 126.896264 15.592855 174.851452 -49.011915 -4.762337 2.955362 26.250611 5.638319 0.314282 4.494799 0.837294 0.515461 7.136786 1.358960 2.185415 21.479883 4.435026 10.708839 18.272153 -2.245251 12.509648 -5.780938 -5.043836 3.920565 2.265069 4.082334 -6.064819 -23.317365 -16.584652 -91.747604 -52.665690 141.550694 -14.035463 1.935586 -10.890538 -10.194178 -0.457329 0.054061 0.543146 -6.464528 6.214557 46.611050 -71.638153 -77.896836 -6.568098 -11.146010 9.083894 -16.949021 -9.150742 4.018383 8.931292 75.821869 24.254512 23.579603 -18.897800 15.491127 0.002449 -0.006246 0.001085 9.670880 -16.649515 -4.464670 7.294362 67.236656 -5.751870 6.984451 -4.614139 15.704008 -0.005146 0.000283 -0.002280
-15.098084 126.896301 15.593587 174.852961 -49.012867 -4.762930 2.948132 26.256303 5.641607 0.307568 4.500577 0.843827 0.522497 7.130810 1.348206 2.176099 21.482835 4.434540 10.627059 18.294399 -2.267915 12.411153 -5.767468 -5.051170 3.913060 2.274321 4.077602 -6.048022 -23.295539 -16.596798 -91.761367 -52.691646 141.583219 -13.950184 2.008507 -10.784945 -10.194187 -0.419780 0.058027 0.506220 -6.508992 6.206708 46.592385 -71.631529 -77.927461 -6.581270 -11.132949 9.092930 -16.953281 -9.153488 4.016266 8.942357 75.825877 24.257815 23.612455 -18.887112 15.511428 0.006213 -0.002907 0.002753 9.679675 -16.639841 -4.460626 7.327691 67.231131 -5.721897 6.971004 -4.632468 15.714336 -0.004582 -0.000824 -0.002030
-15.096782 126.895958 15.594655 174.846837 -49.011800 -4.756206 2.947868 26.257266 5.641139 0.306418 4.504954 0.848254 0.522329 7.129419 1.344060 2.171074 21.497512 4.449184 10.535216 18.295494 -2.311730 12.305976 -5.769641 -5.062507 3.904947 2.276118 4.059387 -6.046310 -23.153107 -16.621220 -91.980109 -52.680093 141.829605 -13.859283 2.106919 -10.693646 -10.188884 -0.418296 0.044382 0.484988 -6.533885 6.203556 46.563119 -71.627657 -77.954897 -6.587172 -11.127145 9.077993 -16.951844 -9.160885 4.016290 8.943934 75.832065 24.253268 23.629226 -18.881412 15.529666 0.008411 -0.001486 0.003727 9.691765 -16.633213 -4.456356 7.381091 67.222709 -5.672891 6.942124 -4.636490 15.720415 -0.003905 -0.000196 -0.001730
-15.096121 126.896106 15.595271 174.829167 -49.015633 -4.736309 2.953472 26.261889 5.636151 0.308056 4.512764 0.853390 0.517912 7.127053 1.343992 2.176870 21.509657 4.452048 10.434091 18.281465 -2.349709 12.194833 -5.794350 -5.078912 3.862563 2.300633 4.066017 -6.005278 -23.104652 -16.643541 -92.094216 -52.691875 141.959683 -13.768811 2.212030 -10.612524 -10.189369 -0.418755 0.038546 0.457470 -6.554833 6.202838 46.541051 -71.622487 -77.989092 -6.591055 -11.124345 9.057662 -16.937320 -9.165085 4.013775 8.927264 75.839455 24.234493 23.626224 -18.886431 15.544540 0.008184 -0.001707 0.003626 9.711556 -16.620826 -4.453133 7.409797 67.214345 -5.649633 6.913513 -4.638427 15.727810 -0.004179 0.000463 -0.001851
